<svg width="18" height="12" viewBox="0 0 8 5" fill="none" xmlns="http://www.w3.org/2000/svg">
<path d="M7.35491 1.10499C7.30843 1.05813 7.25313 1.02093 7.1922 0.995546C7.13127 0.970161 7.06591 0.957092 6.99991 0.957092C6.9339 0.957092 6.86855 0.970161 6.80762 0.995546C6.74669 1.02093 6.69139 1.05813 6.64491 1.10499L4.35491 3.39499C4.30843 3.44185 4.25313 3.47905 4.1922 3.50443C4.13127 3.52982 4.06591 3.54289 3.99991 3.54289C3.9339 3.54289 3.86855 3.52982 3.80762 3.50443C3.74669 3.47905 3.69139 3.44185 3.64491 3.39499L1.35491 1.10499C1.30843 1.05813 1.25313 1.02093 1.1922 0.995546C1.13127 0.970161 1.06591 0.957092 0.999908 0.957092C0.933902 0.957092 0.868549 0.970161 0.80762 0.995546C0.74669 1.02093 0.691389 1.05813 0.644908 1.10499C0.551782 1.19867 0.499512 1.3254 0.499512 1.45749C0.499512 1.58958 0.551782 1.71631 0.644908 1.80999L2.93991 4.10499C3.22116 4.38589 3.60241 4.54366 3.99991 4.54366C4.39741 4.54366 4.77866 4.38589 5.05991 4.10499L7.35491 1.80999C7.44803 1.71631 7.50031 1.58958 7.50031 1.45749C7.50031 1.3254 7.44803 1.19867 7.35491 1.10499V1.10499Z" fill="#8db2d9"/>
</svg>
